<?xml version="1.0" encoding="UTF-8"?>
<!-- Generator: visioncortex VTracer -->
<svg id="svg" version="1.1" xmlns="http://www.w3.org/2000/svg" style="display: block;" viewBox="0 0 1500 500"><path d="M0 0 C2.98808917 0.00534064 5.97602683 0.00003871 8.96411133 -0.00634766 C37.03297967 -0.01902391 37.03297967 -0.01902391 50.38012695 2.81787109 C51.21842041 2.99302246 52.05671387 3.16817383 52.92041016 3.34863281 C80.16438575 9.25255361 128.98042854 22.32487928 147.69262695 45.13037109 C148.0690332 45.56736328 148.44543945 46.00435547 148.83325195 46.45458984 C151.95649175 50.46861282 153.17818082 55.05412615 152.69262695 60.13037109 C150.57339062 65.33213301 147.09285067 66.85382539 142.25512695 69.06787109 C141.54372559 69.40850586 140.83232422 69.74914062 140.09936523 70.10009766 C138.6543898 70.79194814 137.20679884 71.47836353 135.7565918 72.15917969 C132.84191652 73.5306699 129.95386834 74.94992524 127.06762695 76.38037109 C126.16786133 76.81865234 125.2680957 77.25693359 124.34106445 77.70849609 C122.35483788 78.77484782 120.64476245 79.83834952 118.81762695 81.12646484 C115.51660347 83.37268583 112.07253896 84.64180663 108.31762695 85.94287109 C102.62941014 87.98854051 97.08212936 90.21760384 91.56762695 92.69287109 C66.88917151 103.60429536 66.88917151 103.60429536 57.69262695 101.13037109 C54.25292405 98.70525681 52.04850313 95.55679814 49.69262695 92.13037109 C48.8619854 90.98388479 48.02850063 89.83945465 47.19262695 88.69677734 C45.44786638 86.29586193 43.72850237 83.87961865 42.02856445 81.44677734 C39.7241969 78.15415838 37.31723117 74.95035674 34.84887695 71.77880859 C32.28233073 68.11974607 31.45420247 65.55461115 31.63793945 61.06005859 C31.66243164 60.08037109 31.68692383 59.10068359 31.7121582 58.09130859 C31.78168035 56.05714219 31.8596091 54.0232432 31.9465332 51.98974609 C32.14145247 43.20691341 30.46082439 35.93064198 24.50512695 29.25537109 C18.33435455 23.61656183 10.27111204 20.76506468 1.96606445 20.91943359 C-5.92514006 21.65160721 -12.66669796 24.53994701 -18.30737305 30.13037109 C-23.93406201 37.30332573 -25.91695874 44.60848454 -25.7409668 53.67724609 C-24.74327374 61.62283764 -21.08767215 68.10434826 -14.93237305 73.19287109 C-9.03816573 77.21031588 -4.46113954 79.1755663 2.73583984 79.17260742 C8.85000131 79.24024375 12.35215985 79.87221368 16.94262695 84.31787109 C18.62864012 86.18347604 20.17247537 88.12811603 21.69262695 90.13037109 C22.13654785 90.70674316 22.58046875 91.28311523 23.0378418 91.87695312 C31.88611244 103.50102951 31.88611244 103.50102951 34.69262695 110.13037109 C33.66031807 115.39514638 31.65587281 117.78572675 27.3371582 120.74365234 C21.86172274 124.02891362 16.53265799 126.70296153 10.50512695 128.81787109 C-0.17506565 132.57547222 -10.22322671 137.73778177 -20.37670898 142.70556641 C-24.35491112 144.63965401 -28.35955528 146.51406184 -32.36987305 148.38037109 C-38.59361924 151.28619231 -44.74999215 154.31189612 -50.87011719 157.43017578 C-65.98365896 165.09158348 -65.98365896 165.09158348 -72.30737305 163.13037109 C-76.51491788 160.48994286 -80.1153348 157.01452612 -83.72045898 153.62304688 C-85.64657698 151.81131065 -87.61160842 150.04655866 -89.58300781 148.28442383 C-90.79202703 147.20018292 -91.98957583 146.10319012 -93.1862793 145.00537109 C-95.27264104 143.09561527 -95.27264104 143.09561527 -97.5847168 141.50537109 C-98.15319336 141.05162109 -98.72166992 140.59787109 -99.30737305 140.13037109 C-99.30737305 139.47037109 -99.30737305 138.81037109 -99.30737305 138.13037109 C-99.96737305 138.13037109 -100.62737305 138.13037109 -101.30737305 138.13037109 C-101.30737305 137.47037109 -101.30737305 136.81037109 -101.30737305 136.13037109 C-102.29737305 135.80037109 -103.28737305 135.47037109 -104.30737305 135.13037109 C-104.30737305 134.47037109 -104.30737305 133.81037109 -104.30737305 133.13037109 C-104.96737305 133.13037109 -105.62737305 133.13037109 -106.30737305 133.13037109 C-107.5769043 131.87255859 -107.5769043 131.87255859 -109.11987305 130.00537109 C-112.52296644 125.9912839 -116.07701742 122.15080213 -119.68237305 118.31787109 C-124.3496635 113.32851573 -128.78471257 108.24849879 -133.05737305 102.91552734 C-135.61637144 99.7225325 -138.27666889 96.61794638 -140.93237305 93.50537109 C-145.20062932 88.48480156 -149.33617015 83.39092558 -153.30737305 78.13037109 C-154.06727539 77.17517578 -154.06727539 77.17517578 -154.8425293 76.20068359 C-155.30530273 75.59998047 -155.76807617 74.99927734 -156.24487305 74.38037109 C-156.8462207 73.61466797 -156.8462207 73.61466797 -157.4597168 72.83349609 C-158.73868959 70.26376274 -158.84624494 68.98515809 -158.30737305 66.13037109 C-156.53430687 63.64452045 -154.39117399 61.60368849 -152.18237305 59.50537109 C-151.55000732 58.89145508 -150.9176416 58.27753906 -150.26611328 57.64501953 C-118.56651253 27.37113493 -75.03868603 5.87480599 -31.30737305 1.13037109 C-30.18939331 1.00009521 -30.18939331 1.00009521 -29.04882812 0.8671875 C-19.38215046 -0.11257264 -9.70636674 -0.02061305 0 0 Z M686.69262695 69.13037109 C689.28922483 68.92641454 691.77791752 68.85079771 694.3762207 68.86474609 C695.14692398 68.86283264 695.91762726 68.86091919 696.71168518 68.85894775 C698.34506557 68.85758412 699.97845672 68.86129298 701.61181641 68.86962891 C704.11621427 68.88031175 706.6198924 68.86974748 709.12426758 68.85693359 C710.70825354 68.85825544 712.29223906 68.86081836 713.8762207 68.86474609 C714.62834335 68.86069763 715.380466 68.85664917 716.15538025 68.85247803 C721.46271447 68.90045861 721.46271447 68.90045861 723.69262695 71.13037109 C723.8860321 73.55500793 723.8860321 73.55500793 723.80859375 76.63745117 C723.78584885 77.78816605 723.76310394 78.93888092 723.7396698 80.12446594 C723.72332174 80.7399914 723.70697369 81.35551685 723.69013023 81.9896946 C723.64162299 83.90871306 723.60958989 85.82731037 723.58296204 87.74674988 C723.5063974 93.20302493 723.41615038 98.65851488 723.27441406 104.11352539 C723.18894346 107.44851561 723.13645012 110.7825751 723.1063633 114.11850548 C723.08824782 115.39675698 723.05719248 116.67488618 723.01364708 117.95252419 C722.7783201 123.10621375 722.7783201 123.10621375 723.69262695 128.13037109 C726.87754339 127.50674465 728.12079902 126.89645727 730.69262695 125.13037109 C731.54727539 124.69595703 732.40192383 124.26154297 733.2824707 123.81396484 C734.05719727 123.40275391 734.83192383 122.99154297 735.63012695 122.56787109 C746.54624809 117.10981052 757.96145116 116.67543247 769.69262695 120.13037109 C772.53149763 121.22847258 775.10110464 122.53731409 777.69262695 124.13037109 C778.22629883 124.45521484 778.7599707 124.78005859 779.30981445 125.11474609 C786.7807607 130.45666621 790.68577433 140.74507078 792.31733704 149.47172546 C792.48829745 150.67008654 792.64988034 151.86981401 792.80322266 153.07055664 C792.88751431 153.72170032 792.97180597 154.37284399 793.05865192 155.04371929 C793.90028899 162.06136534 793.96492672 169.02884046 793.9230957 176.08740234 C793.92189889 177.45122738 793.9214518 178.81505325 793.92170715 180.17887878 C793.92016285 182.99975948 793.91202309 185.82050953 793.8984375 188.64135742 C793.88123632 192.25824019 793.87763031 195.87498342 793.87838268 199.49190235 C793.87811153 202.29108513 793.87264259 205.09023737 793.86538124 207.88941002 C793.86220291 209.22468524 793.86022912 210.55996389 793.85948753 211.89524269 C793.85732709 213.74687322 793.84859573 215.59835293 793.83789062 217.44995117 C793.83407883 218.50169022 793.83026703 219.55342926 793.82633972 220.63703918 C793.69262695 223.13037109 793.69262695 223.13037109 792.69262695 225.13037109 C790.01249851 225.33422702 787.43691429 225.40993052 784.75512695 225.39599609 C783.95985596 225.39790955 783.16458496 225.399823 782.34521484 225.40179443 C780.66055994 225.40315796 778.97589459 225.39944988 777.29125977 225.39111328 C774.70345599 225.38041586 772.11634647 225.39100267 769.52856445 225.40380859 C767.89575041 225.40248703 766.2629368 225.3999247 764.63012695 225.39599609 C763.85096924 225.40004456 763.07181152 225.40409302 762.26904297 225.40826416 C760.40800284 225.39191083 758.54837851 225.27152326 756.69262695 225.13037109 C755.33394891 222.41301502 755.55293143 220.25749638 755.53491211 217.21533203 C755.52983139 216.61020279 755.52475067 216.00507355 755.51951599 215.38160706 C755.50880959 214.0660726 755.50019046 212.75051989 755.49339676 211.43495941 C755.48160351 209.3495485 755.46214795 207.26434429 755.4402771 205.17901611 C755.37868873 199.2492974 755.32469842 193.31959793 755.29125977 187.38964844 C755.27025656 183.76264419 755.23490455 180.13601385 755.19050217 176.50922394 C755.17638183 175.12984891 755.1676287 173.75040768 755.16444778 172.37096405 C755.15951168 170.43457744 755.13628622 168.49917351 755.10913086 166.56298828 C755.10104401 165.46315613 755.09295715 164.36332397 755.08462524 163.23016357 C754.51002404 158.68640785 752.97971022 155.41745436 749.69262695 152.13037109 C742.42708999 149.3359338 734.66087499 151.54690498 727.69262695 154.13037109 C726.99429245 154.34705444 726.29595795 154.56373779 725.57646179 154.7869873 C723.37625725 156.02227923 723.37625725 156.02227923 723.21833801 158.90100098 C723.20976709 160.09272184 723.22355121 161.28472172 723.25439453 162.47607422 C723.25541672 163.12664291 723.2564389 163.77721161 723.25749207 164.44749451 C723.26539108 166.60276666 723.30139741 168.75664626 723.3371582 170.91162109 C723.34715696 172.4061165 723.35524461 173.90062582 723.36149597 175.3951416 C723.38245892 179.33364514 723.42654751 183.27154485 723.47625732 187.20977783 C723.55144256 193.51373434 723.58949127 199.81805394 723.63175011 206.12229919 C723.64949049 208.32826591 723.67561987 210.53400645 723.70332336 212.73986816 C723.71654 214.0881338 723.7296626 215.43640036 723.74267578 216.78466797 C723.75749496 217.70891823 723.75749496 217.70891823 723.77261353 218.65184021 C723.80585395 222.9039171 723.80585395 222.9039171 722.69262695 225.13037109 C720.01249851 225.33422702 717.43691429 225.40993052 714.75512695 225.39599609 C713.95985596 225.39790955 713.16458496 225.399823 712.34521484 225.40179443 C710.66055994 225.40315796 708.97589459 225.39944988 707.29125977 225.39111328 C704.70345599 225.38041586 702.11634647 225.39100267 699.52856445 225.40380859 C697.89575041 225.40248703 696.2629368 225.3999247 694.63012695 225.39599609 C693.85096924 225.40004456 693.07181152 225.40409302 692.26904297 225.40826416 C690.40800284 225.39191083 688.54837851 225.27152326 686.69262695 225.13037109 C685.32093812 222.38699343 685.56668069 220.20471712 685.56564331 217.1328125 C685.56408332 216.51181482 685.56252333 215.89081715 685.56091607 215.25100136 C685.55691388 213.16128827 685.56009269 211.07164728 685.56323242 208.98193359 C685.56187804 207.48736529 685.56009789 205.99279732 685.55792236 204.49822998 C685.55335249 200.43221981 685.55513577 196.36623493 685.55830145 192.3002243 C685.56082734 188.05171133 685.55848687 183.80320056 685.55691528 179.5546875 C685.55509426 172.4191041 685.55749814 165.28353105 685.56225586 158.14794922 C685.56769835 149.88981358 685.56593565 141.63170262 685.56042945 133.37356758 C685.55589642 126.29244843 685.55524871 119.21133673 685.55786812 112.1302166 C685.55942984 107.89696727 685.55962752 103.66372955 685.55633163 99.43048096 C685.55345016 95.45131521 685.55543373 91.47218139 685.56122589 87.4930191 C685.562552 86.029656 685.56216188 84.56629022 685.55996323 83.10292816 C685.55724589 81.1112253 685.56064003 79.11962589 685.56564331 77.12792969 C685.56602034 76.01147064 685.56639736 74.8950116 685.56678581 73.74472046 C685.69262695 71.13037109 685.69262695 71.13037109 686.69262695 69.13037109 Z M439.3371582 74.95458984 C442.75175859 77.91653427 444.41167265 80.25829805 445.07543945 84.68115234 C445.33534267 90.94481997 444.54569896 96.06872681 440.69262695 101.13037109 C435.76278468 106.01645737 428.89750413 107.19572732 422.19262695 107.38037109 C414.98337173 107.18183739 409.37367562 105.62236307 403.69262695 101.13037109 C399.32310994 96.30883508 399.35336418 91.10071737 399.40356445 84.82568359 C399.83093679 80.84072534 401.07095421 79.12656852 403.69262695 76.13037109 C404.43512695 75.26412109 404.43512695 75.26412109 405.19262695 74.38037109 C413.94973818 67.0827784 430.47867706 68.42353806 439.3371582 74.95458984 Z M338.76733398 80.81469727 C341.18950079 80.817867 343.61045282 80.79426722 346.0324707 80.76904297 C355.18088301 80.73182679 363.97683017 81.06327294 372.69262695 84.13037109 C374.69262695 86.13037109 374.69262695 86.13037109 374.93554688 88.71240234 C374.93143799 89.77845703 374.9273291 90.84451172 374.9230957 91.94287109 C374.92263748 92.51239502 374.92217926 93.08191895 374.92170715 93.66870117 C374.91868714 94.87241704 374.91080823 96.07612907 374.8984375 97.27978516 C374.88019642 99.12335033 374.87792775 100.96641265 374.87817383 102.81005859 C374.84022918 111.83516664 374.84022918 111.83516664 373.69262695 114.13037109 C372.0559082 114.36083984 372.0559082 114.36083984 370.00512695 114.31787109 C369.34125977 114.31142578 368.67739258 114.30498047 367.9934082 114.29833984 C365.69262695 114.13037109 365.69262695 114.13037109 362.90795898 113.63037109 C344.13801278 110.71155182 320.809613 111.26859187 304.69262695 122.13037109 C298.16205256 126.96874074 294.29289031 132.16746065 292.69262695 140.13037109 C292.47993164 141.03529297 292.26723633 141.94021484 292.0480957 142.87255859 C289.45120607 155.5051701 290.4856928 168.10707867 297.0090332 179.41162109 C300.42440669 184.3997415 304.35799586 187.37904561 309.69262695 190.13037109 C310.2237207 190.42685547 310.75481445 190.72333984 311.30200195 191.02880859 C316.30576966 193.53069245 322.0544444 194.51404577 327.60083008 194.92163086 C329.69262695 195.13037109 329.69262695 195.13037109 332.75317383 195.8059082 C336.30164941 196.33202703 338.40572401 196.62517429 341.69262695 195.13037109 C343.49462497 189.27720346 343.04579181 183.38420429 342.81762695 177.31787109 C342.77441854 174.7808171 342.74772881 172.24420063 342.72799683 169.7068634 C342.70988584 168.12395686 342.67484522 166.54113677 342.62136841 164.95903015 C342.6025058 164.23850967 342.58364319 163.5179892 342.56420898 162.77563477 C342.5413382 162.14276047 342.51846741 161.50988617 342.49490356 160.85783386 C342.73841572 158.73032542 343.24375841 157.70418042 344.69262695 156.13037109 C347.22268342 155.82579888 349.50446419 155.71013169 352.03637695 155.73193359 C352.76127319 155.72906342 353.48616943 155.72619324 354.23303223 155.72323608 C355.76628398 155.72119378 357.29956169 155.72673533 358.83276367 155.73925781 C361.18377775 155.75531067 363.53307278 155.73941641 365.8840332 155.72021484 C367.37231826 155.72219725 368.86060224 155.72604087 370.34887695 155.73193359 C371.05411499 155.7258609 371.75935303 155.71978821 372.48596191 155.71353149 C377.33680769 155.78366366 377.33680769 155.78366366 378.87898254 157.28634644 C380.03969837 159.91696563 379.93937874 162.15124391 379.93554688 165.02294922 C379.93744522 165.61353622 379.93934357 166.20412323 379.94129944 166.81260681 C379.94500037 168.76241382 379.93431273 170.71184725 379.9230957 172.66162109 C379.92190333 174.01778113 379.92145086 175.373942 379.92170715 176.73010254 C379.92014344 179.57142309 379.91186271 182.41261744 379.8984375 185.25390625 C379.88144783 188.8956975 379.87762326 192.53735009 379.87838268 196.17917633 C379.87811073 198.97928185 379.87262542 201.77935707 379.86538124 204.57945251 C379.86219947 205.92227448 379.86022831 207.26509988 379.85948753 208.60792542 C379.85731875 210.48460739 379.84856296 212.36114256 379.83789062 214.23779297 C379.83407883 215.30574097 379.83026703 216.37368896 379.82633972 217.47399902 C379.69262695 220.13037109 379.69262695 220.13037109 378.69262695 223.13037109 C372.93636396 225.88582175 365.43831842 225.77302664 359.19262695 226.25537109 C357.60140015 226.38165894 357.60140015 226.38165894 355.97802734 226.51049805 C347.52304959 227.14341902 339.16399625 227.42051778 330.69262695 227.13037109 C330.09256836 227.11635254 329.49250977 227.10233398 328.87426758 227.08789062 C306.00759805 226.49355329 282.10461448 220.34846364 265.75512695 203.44287109 C253.20333523 188.41344451 248.52173705 167.95711843 249.94262695 148.69287109 C251.72379338 130.92215315 256.68032512 113.92303344 270.31762695 101.56787109 C271.75756731 100.39900759 273.21451142 99.25056956 274.69262695 98.13037109 C275.27657227 97.66373047 275.86051758 97.19708984 276.4621582 96.71630859 C283.75688163 91.14703497 291.73891866 87.92089906 300.50512695 85.44287109 C301.21515869 85.24048828 301.92519043 85.03810547 302.65673828 84.82958984 C314.67676379 81.59948558 326.39104679 80.78090963 338.76733398 80.81469727 Z M634.83740234 80.81469727 C637.12361206 80.81786208 639.40852864 80.79428831 641.69458008 80.76904297 C650.4293473 80.73048486 659.47101954 80.81115297 667.69262695 84.13037109 C668.74207476 87.27871453 668.82178202 89.51780536 668.82543945 92.82177734 C668.82672852 93.93101562 668.82801758 95.04025391 668.8293457 96.18310547 C668.82725098 96.75891357 668.82515625 97.33472168 668.82299805 97.92797852 C668.81763511 99.69019132 668.82295823 101.45215046 668.8293457 103.21435547 C668.82805664 104.32230469 668.82676758 105.43025391 668.82543945 106.57177734 C668.82431152 107.58957275 668.82318359 108.60736816 668.82202148 109.65600586 C668.69262695 112.13037109 668.69262695 112.13037109 667.69262695 114.13037109 C665.48168945 114.10693359 665.48168945 114.10693359 662.31762695 113.75537109 C655.5019867 113.13593603 648.68767994 112.94578755 641.84661865 112.8961792 C640.11107086 112.88075714 638.37569496 112.84879351 636.64038086 112.81640625 C624.76434391 112.76638373 615.05868314 115.44030764 604.69262695 121.13037109 C603.6252832 121.57703125 603.6252832 121.57703125 602.53637695 122.03271484 C600.19678659 123.42556419 599.74038118 124.64647099 598.69262695 127.13037109 C598.29043945 127.81873047 597.88825195 128.50708984 597.47387695 129.21630859 C590.56947606 141.55161019 590.33599416 156.71764033 593.41137695 170.30615234 C596.27484848 179.22981576 601.02749876 184.97300118 609.25512695 189.44287109 C626.46640028 197.32868547 643.23493811 195.17669582 661.40942383 192.40576172 C665.76419184 191.88050741 665.76419184 191.88050741 667.69262695 192.13037109 C668.73893056 195.26928191 668.82177089 197.49330155 668.82543945 200.78662109 C668.82672852 201.89134766 668.82801758 202.99607422 668.8293457 204.13427734 C668.82547852 205.28798828 668.82161133 206.44169922 668.81762695 207.63037109 C668.82149414 208.78408203 668.82536133 209.93779297 668.8293457 211.12646484 C668.82805664 212.23119141 668.82676758 213.33591797 668.82543945 214.47412109 C668.82431152 215.48667969 668.82318359 216.49923828 668.82202148 217.54248047 C668.69262695 220.13037109 668.69262695 220.13037109 667.69262695 223.13037109 C644.36136022 231.7145164 610.58330711 228.99034392 587.8215332 219.63427734 C573.49045863 212.74605798 561.81878539 202.0035238 555.69262695 187.13037109 C549.30024102 167.66978555 548.26589989 146.63824855 554.69262695 127.13037109 C554.99297852 126.19837891 555.29333008 125.26638672 555.6027832 124.30615234 C559.32945544 114.02957134 565.493775 105.30642864 573.69262695 98.13037109 C574.19922852 97.68306641 574.70583008 97.23576172 575.2277832 96.77490234 C584.40852782 89.51953128 596.39117728 85.39626924 607.69262695 83.13037109 C608.96952393 82.86184326 608.96952393 82.86184326 610.2722168 82.58789062 C618.48356266 81.02658886 626.49868685 80.79062528 634.83740234 80.81469727 Z M498.94335938 80.69311523 C503.09622717 80.72709366 506.00645773 81.11797107 509.69262695 83.13037109 C514.61711189 91.40889326 511.97406486 104.80811896 510.96337891 113.89575195 C510.82935669 115.49688843 510.82935669 115.49688843 510.69262695 117.13037109 C512.39800957 118.83575371 514.63814198 118.31996218 516.9699707 118.37646484 C518.04053711 118.40933594 519.11110352 118.44220703 520.21411133 118.47607422 C522.48744993 118.53716451 524.76089346 118.59446973 527.03442383 118.64794922 C528.64220703 118.69918945 528.64220703 118.69918945 530.2824707 118.75146484 C531.27110107 118.776521 532.25973145 118.80157715 533.27832031 118.82739258 C535.69262695 119.13037109 535.69262695 119.13037109 537.69262695 121.13037109 C537.93554688 123.72827148 537.93554688 123.72827148 537.9230957 126.97802734 C537.92263748 127.54992294 537.92217926 128.12181854 537.92170715 128.71104431 C537.91868761 129.91895627 537.91081007 131.12686443 537.8984375 132.3347168 C537.88016247 134.18926694 537.87792795 136.04331837 537.87817383 137.89794922 C537.84009462 146.98290343 537.84009462 146.98290343 536.69262695 148.13037109 C534.75944823 147.8842169 532.8318003 147.59439941 530.9074707 147.28662109 C520.41937357 145.90169232 520.41937357 145.90169232 510.69262695 149.13037109 C506.07490374 160.69168898 508.80995072 178.523774 512.69262695 190.13037109 C514.07530032 192.49255999 515.23509832 193.8630357 517.69262695 195.13037109 C522.85372578 196.21436364 528.06512018 196.15876302 533.31762695 196.13037109 C536.69262695 196.13037109 536.69262695 196.13037109 537.69262695 197.13037109 C537.93363592 200.95985756 537.9211133 204.79537126 537.93286133 208.6315918 C537.94257088 210.55675398 537.97358315 212.48085023 538.00512695 214.40576172 C538.01165651 215.6251564 538.01690717 216.84455874 538.02075195 218.06396484 C538.03009766 219.17827881 538.03944336 220.29259277 538.04907227 221.44067383 C537.69262695 224.13037109 537.69262695 224.13037109 536.4230957 225.47167969 C524.44985883 230.02921257 505.10570827 228.80090159 493.31762695 224.38037109 C484.84718172 220.34682574 478.34383161 213.92840999 474.88391113 205.05671692 C472.690039 198.41089107 472.43760135 192.63681638 472.7434082 185.68896484 C472.78440099 183.53864474 472.82139886 181.38824538 472.85473633 179.23779297 C472.91886117 175.87631419 473.00720029 172.52291873 473.16210938 169.16430664 C473.94101498 158.9344606 473.94101498 158.9344606 471.69262695 149.13037109 C467.41479683 146.34869208 462.02783436 147.2967903 457.2540741 148.19081116 C456.73879654 148.17086594 456.22351898 148.15092072 455.69262695 148.13037109 C454.11364 143.39341023 454.508148 138.59093696 454.50512695 133.63037109 C454.49288086 132.57205078 454.48063477 131.51373047 454.46801758 130.42333984 C454.46511719 128.90160156 454.46511719 128.90160156 454.4621582 127.34912109 C454.45804932 126.42035156 454.45394043 125.49158203 454.44970703 124.53466797 C454.70138317 122.04370656 454.90213928 120.8758626 456.69262695 119.13037109 C458.37255859 118.85668945 458.37255859 118.85668945 460.3527832 118.97021484 C461.41916016 118.9847168 461.41916016 118.9847168 462.50708008 118.99951172 C464.01075737 119.04523605 465.51384072 119.11836458 467.01489258 119.21826172 C469.25065602 119.22029238 470.71247212 119.18634907 472.69262695 118.13037109 C473.50618123 115.74673899 473.53746265 113.62983027 473.59277344 111.11352539 C473.76967408 105.8285645 475.09119706 100.72570994 476.19262695 95.56787109 C476.41821289 94.47667969 476.64379883 93.38548828 476.8762207 92.26123047 C479.44097559 80.08243879 487.52569354 81.19270934 498.94335938 80.69311523 Z M968.99609375 80.62280273 C973.15992387 80.6570431 976.0510081 81.00893731 979.69262695 83.13037109 C982.43873492 89.01229873 980.8188215 96.82588781 980.29568481 103.06625366 C979.49434462 110.68033447 979.49434462 110.68033447 980.69262695 118.13037109 C986.24945683 122.22891047 993.6021753 120.76735769 1000.0637207 119.94677734 C1001.09424561 119.75543213 1002.12477051 119.56408691 1003.18652344 119.36694336 C1004.0135376 119.28887451 1004.84055176 119.21080566 1005.69262695 119.13037109 C1007.69262695 121.13037109 1007.69262695 121.13037109 1007.93554688 123.72827148 C1007.93143799 124.80069092 1007.9273291 125.87311035 1007.9230957 126.97802734 C1007.92263748 127.54992294 1007.92217926 128.12181854 1007.92170715 128.71104431 C1007.91868761 129.91895627 1007.91081007 131.12686443 1007.8984375 132.3347168 C1007.88016247 134.18926694 1007.87792795 136.04331837 1007.87817383 137.89794922 C1007.84009462 146.98290343 1007.84009462 146.98290343 1006.69262695 148.13037109 C1005.10665277 148.27555406 1003.51478148 148.35750464 1001.9230957 148.41162109 C1000.46613281 148.46769531 1000.46613281 148.46769531 998.97973633 148.52490234 C997.44542969 148.57710937 997.44542969 148.57710937 995.88012695 148.63037109 C993.87348018 148.69943351 991.86695692 148.77220837 989.8605957 148.84912109 C988.96622803 148.87941406 988.07186035 148.90970703 987.15039062 148.94091797 C986.33932861 149.0034375 985.5282666 149.06595703 984.69262695 149.13037109 C983.93626953 149.15156006 983.17991211 149.17274902 982.40063477 149.19458008 C981.83699219 149.50339111 981.27334961 149.81220215 980.69262695 150.13037109 C980.27992234 152.68672976 980.1561629 154.82042849 980.1965332 157.38427734 C980.19435036 158.48569313 980.19435036 158.48569313 980.19212341 159.60935974 C980.19378786 161.1705215 980.20541005 162.73169873 980.22607422 164.29272461 C980.25472009 166.65925834 980.24675889 169.02350892 980.23364258 171.39013672 C980.23988977 172.90902766 980.24828834 174.42791156 980.2590332 175.94677734 C980.25609756 176.6460585 980.25316193 177.34533966 980.25013733 178.06581116 C980.35906637 183.8786611 981.43982828 189.75925316 985.55200195 194.08740234 C988.10698721 195.3322583 990.10844386 195.63567361 992.94262695 195.81787109 C993.90426758 195.88361328 994.8659082 195.94935547 995.85668945 196.01708984 C998.34928831 196.11665646 1000.82362822 196.15288011 1003.31762695 196.13037109 C1006.69262695 196.13037109 1006.69262695 196.13037109 1007.69262695 197.13037109 C1007.93363592 200.95985756 1007.9211133 204.79537126 1007.93286133 208.6315918 C1007.94257088 210.55675398 1007.97358315 212.48085023 1008.00512695 214.40576172 C1008.01165651 215.6251564 1008.01690717 216.84455874 1008.02075195 218.06396484 C1008.03009766 219.17827881 1008.03944336 220.29259277 1008.04907227 221.44067383 C1007.69262695 224.13037109 1007.69262695 224.13037109 1006.42504883 225.47167969 C994.65524571 229.94672603 976.01221753 228.68709489 964.4230957 224.38427734 C954.63463312 219.88914646 948.89940464 214.0006808 944.88012695 203.94287109 C942.79221403 198.13467697 942.6215899 192.7202735 942.83726501 186.61528015 C942.97945652 182.57970594 943.01970375 178.54421762 943.06884766 174.5065918 C943.10988561 172.37114698 943.17784792 170.23605902 943.27197266 168.10229492 C943.98560129 158.38848529 943.98560129 158.38848529 941.69262695 149.13037109 C937.40474997 146.40418302 932.05034308 147.21871563 927.25209045 147.9835968 C926.7374675 148.03203232 926.22284454 148.08046783 925.69262695 148.13037109 C923.44598597 145.88373011 924.52009437 141.00290534 924.50708008 137.89794922 C924.50716064 137.29023682 924.50724121 136.68252441 924.50732422 136.05639648 C924.50513992 134.20386718 924.48699278 132.35193537 924.46801758 130.49951172 C924.46508324 129.32568564 924.46309871 128.15185672 924.4621582 126.97802734 C924.45804932 125.90560791 924.45394043 124.83318848 924.44970703 123.72827148 C924.69262695 121.13037109 924.69262695 121.13037109 926.69262695 119.13037109 C929.90249455 119.00521571 933.07342324 118.95934776 936.2824707 119.09130859 C938.32947064 119.05938657 939.81406754 118.95252204 941.69262695 118.13037109 C942.87084761 115.23581707 943.29010089 113.18061138 943.69262695 110.13037109 C944.1028371 107.98434225 944.52146153 105.83991202 944.9465332 103.69677734 C945.50305101 100.75767906 946.04768903 97.81635488 946.59082031 94.87475586 C946.91440362 93.12731146 947.24288558 91.38077637 947.5715332 89.63427734 C947.85879272 88.0846228 947.85879272 88.0846228 948.15185547 86.50366211 C949.62038089 80.05872502 963.3747802 80.87318621 968.99609375 80.62280273 Z M175.69262695 87.13037109 C177.74572663 88.77285084 179.09145219 90.10680054 180.69262695 92.13037109 C181.38485352 92.98888672 181.38485352 92.98888672 182.09106445 93.86474609 C194.20861629 110.40616607 196.92357835 130.02804079 196.94262695 149.94287109 C196.9433017 150.58010101 196.94397644 151.21733093 196.94467163 151.87387085 C196.90224767 177.24141818 192.33474774 203.33653638 175.3918457 223.14208984 C173.69766218 225.02503065 173.69766218 225.02503065 172.5871582 226.89990234 C172.29196289 227.30595703 171.99676758 227.71201172 171.69262695 228.13037109 C171.03262695 228.13037109 170.37262695 228.13037109 169.69262695 228.13037109 C169.4193457 228.69626953 169.14606445 229.26216797 168.86450195 229.84521484 C167.38800447 232.72438493 165.33205006 234.58325978 162.94262695 236.69287109 C162.46019531 237.12341797 161.97776367 237.55396484 161.48071289 237.99755859 C141.32177752 255.76302037 120.07518169 269.9544296 93.69262695 276.13037109 C92.9046875 276.31583496 92.11674805 276.50129883 91.30493164 276.69238281 C86.11372146 277.90099112 80.9090743 279.03634006 75.69262695 280.13037109 C74.72583008 280.33533203 73.7590332 280.54029297 72.76293945 280.75146484 C59.8287524 283.41681649 47.15031713 285.19493885 33.94262695 285.31787109 C33.12592529 285.33092285 32.30922363 285.34397461 31.46777344 285.35742188 C22.67139168 285.37003059 22.67139168 285.37003059 18.69262695 283.13037109 C17.27852007 278.06644644 19.91598223 274.22559115 22.35864258 269.83544922 C22.86073242 268.96339844 23.36282227 268.09134766 23.88012695 267.19287109 C24.36288086 266.3246875 24.84563477 265.45650391 25.34301758 264.56201172 C33.7242422 249.67830679 42.35282683 244.86719763 57.94067383 238.46484375 C62.24457431 236.68433258 66.186558 234.85864161 70.12231445 232.36083984 C75.41357618 229.33383836 80.30843685 229.67089408 86.25512695 230.00537109 C95.2893893 230.44089905 102.75272925 230.25305417 109.88012695 224.06787109 C116.21873715 218.01681126 118.89846396 212.12418755 119.22192383 203.39526367 C119.23835938 202.21226685 119.23835938 202.21226685 119.25512695 201.00537109 C119.26995117 200.25344482 119.28477539 199.50151855 119.30004883 198.72680664 C119.20819173 193.73426376 118.10022639 190.20630829 115.64550781 185.86132812 C114.69262695 184.13037109 114.69262695 184.13037109 113.69262695 181.13037109 C113.03262695 181.13037109 112.37262695 181.13037109 111.69262695 181.13037109 C111.69262695 180.47037109 111.69262695 179.81037109 111.69262695 179.13037109 C109.89223604 178.06789289 109.89223604 178.06789289 107.69262695 177.13037109 C106.70262695 176.61796875 106.70262695 176.61796875 105.69262695 176.09521484 C104.70262695 175.58667969 104.70262695 175.58667969 103.69262695 175.06787109 C102.70262695 174.55546875 102.70262695 174.55546875 101.69262695 174.03271484 C95.25477865 171.12813875 87.82828134 171.25767593 81.13012695 173.25537109 C72.72101389 176.45529907 66.61311745 180.92184412 62.69262695 189.13037109 C61.77373542 191.88704568 61.58449993 193.42649588 61.63012695 196.25537109 C61.64172852 197.43873047 61.64172852 197.43873047 61.65356445 198.64599609 C61.67290039 199.87576172 61.67290039 199.87576172 61.69262695 201.13037109 C61.71817621 202.75530379 61.73919504 204.38031565 61.75512695 206.00537109 C61.76672852 206.72466797 61.77833008 207.44396484 61.7902832 208.18505859 C61.69262695 210.13037109 61.69262695 210.13037109 60.69262695 213.13037109 C58.54989721 214.62907813 56.45168612 215.95482119 54.19262695 217.25537109 C53.53133789 217.64354004 52.87004883 218.03170898 52.1887207 218.43164062 C21.94950219 236.00288746 21.94950219 236.00288746 12.69262695 234.13037109 C9.09914839 232.47946211 5.92828389 230.39213786 2.69262695 228.13037109 C1.97075195 227.65470703 1.24887695 227.17904297 0.50512695 226.68896484 C-3.01508592 224.31140172 -3.01508592 224.31140172 -4.30737305 223.13037109 C-4.30737305 222.47037109 -4.30737305 221.81037109 -4.30737305 221.13037109 C-5.62832519 220.43949654 -6.9639878 219.77654314 -8.30737305 219.13037109 C-9.87548828 217.78930664 -9.87548828 217.78930664 -11.3659668 216.26708984 C-11.91704102 215.70957031 -12.46811523 215.15205078 -13.03588867 214.57763672 C-13.88183594 213.70655273 -13.88183594 213.70655273 -14.74487305 212.81787109 C-15.3049707 212.24875 -15.86506836 211.67962891 -16.44213867 211.09326172 C-17.54795138 209.96938439 -18.65183225 208.84360263 -19.75366211 207.71582031 C-21.16239357 206.27831213 -22.58099585 204.85190664 -24.0065918 203.43115234 C-28.04070638 199.39703776 -28.04070638 199.39703776 -29.68237305 197.63037109 C-30.20573242 197.08380859 -30.7290918 196.53724609 -31.26831055 195.97412109 C-32.30737305 194.13037109 -32.30737305 194.13037109 -32.171875 191.71069336 C-31.02021674 188.27328129 -29.67713884 187.69821812 -26.5144043 186.00146484 C-25.50297363 185.44765137 -24.49154297 184.89383789 -23.44946289 184.32324219 C-22.33977801 183.73778022 -21.22990995 183.15266534 -20.11987305 182.56787109 C-18.97790829 181.95046555 -17.83680385 181.33146628 -16.6965332 180.7109375 C-14.36428073 179.44487866 -12.02728869 178.18832788 -9.68579102 176.93945312 C-6.63040347 175.30785778 -3.59313093 173.64522094 -0.5612793 171.97021484 C31.10179351 154.49030338 63.48019495 138.2108557 96.2902832 122.99365234 C104.11665175 119.35947829 111.80147284 115.5545791 119.40698242 111.4765625 C123.96630461 109.03358396 128.55548255 106.6719273 133.19262695 104.38037109 C138.20821628 101.90173683 143.18978587 99.36325223 148.1496582 96.77490234 C148.99565079 96.33351425 148.99565079 96.33351425 149.85873413 95.88320923 C152.69200023 94.40379435 155.5233302 92.9207756 158.3527832 91.43408203 C159.39963827 90.88619238 160.44651241 90.33833917 161.4934082 89.79052734 C162.88813354 89.05781616 162.88813354 89.05781616 164.31103516 88.31030273 C168.58873944 86.19096447 171.08061131 85.83900671 175.69262695 87.13037109 Z M-178.30737305 97.13037109 C-174.73971677 97.37559802 -173.06616522 99.12735357 -170.75683594 101.72216797 C-170.34038818 102.2075 -169.92394043 102.69283203 -169.49487305 103.19287109 C-169.05328857 103.69238281 -168.6117041 104.19189453 -168.15673828 104.70654297 C-166.24755628 106.87178814 -164.3670396 109.06084547 -162.48706055 111.25146484 C-158.49353616 115.89128424 -154.27985064 120.21556262 -149.86230469 124.45068359 C-148.64095582 125.64103376 -147.46947282 126.88211203 -146.30737305 128.13037109 C-146.30737305 128.79037109 -146.30737305 129.45037109 -146.30737305 130.13037109 C-145.75049805 130.39849609 -145.19362305 130.66662109 -144.61987305 130.94287109 C-141.61954456 132.48358032 -139.62983702 134.73631318 -137.30737305 137.13037109 C-124.64320979 150.16355339 -124.64320979 150.16355339 -110.9206543 162.04052734 C-107.72537683 164.59579407 -104.66176428 167.27052942 -101.61987305 170.00537109 C-100.82444092 170.70327759 -100.82444092 170.70327759 -100.01293945 171.4152832 C-98.71802365 172.59104952 -97.50488227 173.85553579 -96.30737305 175.13037109 C-96.30737305 176.12037109 -96.30737305 177.11037109 -96.30737305 178.13037109 C-97.89894104 179.2902832 -97.89894104 179.2902832 -100.16503906 180.40771484 C-101.01175674 180.83246094 -101.85847443 181.25720703 -102.73085022 181.69482422 C-103.66489182 182.14792969 -104.59893341 182.60103516 -105.5612793 183.06787109 C-107.01098366 183.78813477 -107.01098366 183.78813477 -108.48997498 184.52294922 C-111.08606642 185.80975181 -113.68693413 187.08575946 -116.29058838 188.3571167 C-118.84309958 189.60688537 -121.38825784 190.87144724 -123.93432617 192.13427734 C-129.01005287 194.64628927 -134.09628642 197.13595653 -139.18902588 199.61328125 C-141.30930044 200.64480431 -143.4286625 201.67801007 -145.54681396 202.71386719 C-148.70166762 204.25604945 -151.86157527 205.78758485 -155.0222168 207.31787109 C-155.98269424 207.78773438 -156.94317169 208.25759766 -157.93275452 208.74169922 C-158.8284465 209.17289062 -159.72413849 209.60408203 -160.64697266 210.04833984 C-161.81975014 210.61717896 -161.81975014 210.61717896 -163.01622009 211.19750977 C-165.48067175 212.20093105 -167.65740998 212.85608264 -170.30737305 213.13037109 C-173.62927455 209.8950741 -175.68510445 205.95338007 -177.74487305 201.81787109 C-178.04345215 201.22047119 -178.34203125 200.62307129 -178.6496582 200.00756836 C-184.11987578 188.64961525 -187.43400668 176.71704861 -187.5456543 164.12255859 C-187.55372604 163.24246124 -187.56179779 162.36236389 -187.57011414 161.45559692 C-187.58392741 159.58793078 -187.59466186 157.72023968 -187.60253906 155.85253906 C-187.61394292 153.97941464 -187.63420529 152.10631961 -187.6640625 150.23339844 C-187.95150849 132.1612357 -185.03035273 115.27244168 -179.30737305 98.13037109 C-178.97737305 97.80037109 -178.64737305 97.47037109 -178.30737305 97.13037109 Z M898.8215332 127.88427734 C907.93314193 136.45892202 911.64341934 147.48565093 912.02127457 159.87046337 C912.07011544 163.44092921 912.0519409 167.00905261 912.02075195 170.57958984 C912.01768685 172.12945878 912.01581645 173.67933048 912.01507568 175.22920227 C912.01051092 178.44889152 911.99622173 181.66832527 911.97387695 184.88793945 C911.94533435 189.02179109 911.93463515 193.15544491 911.93019485 197.2893858 C911.92605213 200.47628257 911.91624857 203.66313925 911.90431976 206.85001564 C911.89861594 208.37591037 911.89385761 209.90180893 911.8900528 211.42770958 C911.88321743 213.54570807 911.86960528 215.66354636 911.85375977 217.78149414 C911.85264191 218.41359802 911.85152405 219.0457019 911.85037231 219.69696045 C911.80733673 224.01566132 911.80733673 224.01566132 910.69262695 225.13037109 C906.59674111 225.44377564 902.49851572 225.48700035 898.3918457 225.53540039 C897.0123595 225.55699545 895.6330109 225.59111823 894.25415039 225.63793945 C892.26687423 225.70483267 890.28243123 225.73237101 888.29418945 225.75146484 C887.67847076 225.7792955 887.06275208 225.80712616 886.42837524 225.83580017 C884.67944336 225.82739258 884.67944336 225.82739258 881.69262695 225.13037109 C879.54574485 221.92977931 878.69262695 219.99043531 878.69262695 216.13037109 C875.52657654 217.7133963 872.62366289 219.5263593 869.6574707 221.45068359 C868.98844727 221.88123047 868.31942383 222.31177734 867.63012695 222.75537109 C867.02040039 223.16013672 866.41067383 223.56490234 865.7824707 223.98193359 C860.00515809 227.15675585 854.74781239 227.44103322 848.31762695 227.38037109 C847.50551758 227.38810547 846.6934082 227.39583984 845.85668945 227.40380859 C836.07326921 227.37245148 826.1037074 224.92386151 818.69262695 218.13037109 C818.69262695 217.47037109 818.69262695 216.81037109 818.69262695 216.13037109 C818.03262695 216.13037109 817.37262695 216.13037109 816.69262695 216.13037109 C810.74766069 208.24185817 808.88671924 199.09763904 810.2277832 189.43896484 C811.66510019 182.30069308 815.20110833 176.92935362 820.69262695 172.13037109 C830.54538385 165.72535782 841.55427476 163.3230435 853.12231445 162.39208984 C854.04205551 162.31685341 854.04205551 162.31685341 854.9803772 162.24009705 C857.49244078 162.04144159 860.00392365 161.85193023 862.51928711 161.69995117 C864.39008583 161.58217407 866.254796 161.42790208 868.12231445 161.26708984 C869.21785645 161.19192139 870.31339844 161.11675293 871.44213867 161.03930664 C872.55613037 160.58938354 872.55613037 160.58938354 873.69262695 160.13037109 C873.61523802 155.29356298 872.13235248 152.47713107 868.69262695 149.13037109 C862.97357013 146.45652635 857.09147375 146.82867197 850.88012695 146.88037109 C849.22400391 146.88508423 849.22400391 146.88508423 847.53442383 146.88989258 C839.46317646 146.97020641 831.60856014 147.61363009 823.63012695 148.79052734 C822.17606445 148.95875 822.17606445 148.95875 820.69262695 149.13037109 C818.27900448 146.71674862 819.46320065 140.7481298 819.45239258 137.48364258 C819.44268383 135.70330127 819.41167188 133.92411315 819.38012695 132.14404297 C819.3749707 131.02707031 819.36981445 129.91009766 819.36450195 128.75927734 C819.35515625 127.72875244 819.34581055 126.69822754 819.33618164 125.63647461 C819.69262695 123.13037109 819.69262695 123.13037109 821.0637207 121.81591797 C840.80215686 113.50873441 882.44610631 114.39332931 898.8215332 127.88427734 Z M849.40356445 186.02490234 C847.00557474 188.97585315 846.3453597 191.35278103 846.69262695 195.13037109 C848.46836536 198.32670023 850.00228497 199.750683 853.19262695 201.50537109 C859.09593281 203.08661374 866.35885438 202.17627406 872.0402832 200.08740234 C874.78423804 198.48138066 874.78423804 198.48138066 875.18041992 196.40209961 C875.32247944 194.23920435 875.26508136 192.16844317 875.13012695 190.00537109 C875.10208984 188.89355469 875.10208984 188.89355469 875.07348633 187.75927734 C875.21742346 184.13180016 875.21742346 184.13180016 873.69262695 181.13037109 C865.88175471 180.27887139 855.63090937 180.87087114 849.40356445 186.02490234 Z M408.11669922 118.77392578 C409.58082742 118.76762477 411.04508868 118.77821407 412.5090332 118.80224609 C413.28069321 118.80411926 414.05235321 118.80599243 414.84739685 118.80792236 C416.47903767 118.81464793 418.11066222 118.82857251 419.7421875 118.84912109 C422.24860499 118.88028999 424.75439423 118.89009186 427.26098633 118.89599609 C428.84367634 118.90516525 430.42635992 118.91554074 432.0090332 118.92724609 C433.14025352 118.93362091 433.14025352 118.93362091 434.29432678 118.94012451 C439.57547048 119.01321462 439.57547048 119.01321462 440.69262695 120.13037109 C440.79009006 121.4814443 440.81894275 122.83755482 440.8196106 124.19213867 C440.82243042 125.0671402 440.82525024 125.94214172 440.82815552 126.84365845 C440.82613129 127.81096893 440.82410706 128.77827942 440.82202148 129.77490234 C440.8237738 130.78781342 440.82552612 131.80072449 440.82733154 132.84432983 C440.83175217 136.21052741 440.82881132 139.57667294 440.82543945 142.94287109 C440.82611243 145.27075263 440.8270807 147.59863254 440.82833862 149.92651367 C440.83016004 154.81250579 440.82775475 159.69848282 440.82299805 164.58447266 C440.81755547 170.24043265 440.81931815 175.8963566 440.82482445 181.55231571 C440.82935639 186.40072215 440.83000574 191.24911772 440.82738578 196.0975256 C440.82582345 198.99663423 440.82601828 201.89572212 440.82892227 204.79483032 C440.83144756 208.02519201 440.82760995 211.25548342 440.82202148 214.48583984 C440.82404572 215.45315033 440.82606995 216.42046082 440.82815552 217.41708374 C440.82533569 218.29208527 440.82251587 219.16708679 440.8196106 220.06860352 C440.81923357 220.83331467 440.81885654 221.59802582 440.81846809 222.38591003 C440.69262695 224.13037109 440.69262695 224.13037109 439.69262695 225.13037109 C437.03811126 225.25608725 434.41099038 225.31900982 431.75512695 225.33349609 C430.95985596 225.33919617 430.16458496 225.34489624 429.34521484 225.35076904 C427.66057675 225.36023098 425.97592004 225.36675775 424.29125977 225.37060547 C421.7033702 225.38033072 419.11626805 225.41134977 416.52856445 225.44287109 C414.89575669 225.4493988 413.26294323 225.45465018 411.63012695 225.45849609 C410.85096924 225.4708429 410.07181152 225.4831897 409.26904297 225.49591064 C407.0949707 225.48681641 407.0949707 225.48681641 403.69262695 225.13037109 C402.7819108 222.39822262 402.56535795 220.80329086 402.55891418 217.9934082 C402.5546492 217.15220428 402.55038422 216.31100037 402.54598999 215.44430542 C402.54644318 214.52473053 402.54689636 213.60515564 402.54736328 212.65771484 C402.54400467 211.68673859 402.54064606 210.71576233 402.53718567 209.71536255 C402.52767143 206.49951912 402.52573245 203.28372772 402.5246582 200.06787109 C402.52144643 197.83732074 402.51808242 195.6067706 402.51457214 193.3762207 C402.50858003 188.69888739 402.50668961 184.02157355 402.50732422 179.34423828 C402.50792542 173.93704735 402.49736407 168.52995605 402.48158056 163.12279034 C402.46693637 157.92065335 402.46333592 152.71854687 402.46393394 147.51638794 C402.4627512 145.3027404 402.45831305 143.08909218 402.45060158 140.87545776 C402.44084077 137.78456261 402.44366405 134.69392637 402.44970703 131.60302734 C402.44408752 130.68345245 402.43846802 129.76387756 402.43267822 128.81643677 C402.43687271 127.97523285 402.4410672 127.13402893 402.44538879 126.26733398 C402.44484403 125.53656143 402.44429926 124.80578888 402.44373798 124.0528717 C402.9735397 119.96050825 404.00331041 119.20212882 408.11669922 118.77392578 Z M-71.30737305 211.13037109 C-71.30737305 211.79037109 -71.30737305 212.45037109 -71.30737305 213.13037109 C-69.98481473 213.81816592 -68.64941523 214.48141424 -67.30737305 215.13037109 C-65.69165039 216.53491211 -65.69165039 216.53491211 -64.14331055 218.13427734 C-63.57870117 218.70984375 -63.0140918 219.28541016 -62.43237305 219.87841797 C-61.85487305 220.4771875 -61.27737305 221.07595703 -60.68237305 221.69287109 C-59.52577154 222.88386493 -58.36701527 224.07277114 -57.20581055 225.25927734 C-56.44276611 226.04927124 -56.44276611 226.04927124 -55.66430664 226.85522461 C-54.313372 228.24679279 -54.313372 228.24679279 -52.30737305 229.13037109 C-52.30737305 229.79037109 -52.30737305 230.45037109 -52.30737305 231.13037109 C-51.73116211 231.41783203 -51.15495117 231.70529297 -50.5612793 232.00146484 C-47.86480364 233.3520393 -46.312387 235.00169276 -44.24487305 237.19287109 C-40.96818397 240.54451711 -37.64007171 243.60746408 -33.99487305 246.56787109 C-33.54450684 246.935979 -33.09414063 247.30408691 -32.63012695 247.68334961 C-30.11327879 249.72602817 -27.55637487 251.68912555 -24.94018555 253.60302734 C-23.83340787 254.44546627 -22.72663688 255.28791398 -21.61987305 256.13037109 C-21.09031006 256.49702881 -20.56074707 256.86368652 -20.01513672 257.24145508 C-17.76739642 258.9835565 -16.51003321 260.24581253 -15.86425781 263.06445312 C-15.5880491 269.39406033 -17.54766901 275.10146583 -19.61987305 281.00537109 C-19.92860352 281.94123047 -20.23733398 282.87708984 -20.55541992 283.84130859 C-23.25864881 291.76319199 -23.25864881 291.76319199 -26.30737305 294.13037109 C-28.83056641 295.23022461 -28.83056641 295.23022461 -31.8972168 296.25927734 C-32.45978683 296.44965073 -33.02235687 296.64002411 -33.60197449 296.83616638 C-35.47939552 297.46637268 -37.36143925 298.08088305 -39.24487305 298.69287109 C-39.90428894 298.90935303 -40.56370483 299.12583496 -41.24310303 299.34887695 C-75.82111214 310.67375511 -111.43639528 319.96828947 -147.30737305 326.13037109 C-148.21205322 326.31365967 -149.1167334 326.49694824 -150.04882812 326.68579102 C-152.62305042 327.15366793 -153.998554 327.39828371 -156.30737305 326.13037109 C-157.68753116 321.58156595 -156.80080678 316.78236936 -156.30737305 312.13037109 C-156.21311035 311.12216309 -156.11884766 310.11395508 -156.02172852 309.07519531 C-150.5833349 251.14226051 -150.5833349 251.14226051 -135.30737305 236.13037109 C-132.9157301 234.37977582 -130.38404538 233.03419093 -127.74487305 231.69287109 C-126.96418457 231.28818604 -126.18349609 230.88350098 -125.37915039 230.46655273 C-116.26467088 225.89081155 -106.83930051 221.9949692 -97.43237305 218.06787109 C-96.62589325 217.73054962 -95.81941345 217.39322815 -94.98849487 217.04568481 C-92.66256146 216.07640553 -90.33348203 215.1152338 -88.00268555 214.15771484 C-86.95053108 213.72088882 -86.95053108 213.72088882 -85.87712097 213.27523804 C-75.95195176 209.23813532 -75.95195176 209.23813532 -71.30737305 211.13037109 Z " transform="translate(353.307373046875,74.86962890625)" style="fill: #F7F7F7;"/></svg>