<?xml version="1.0" encoding="UTF-8" ?>
<!DOCTYPE svg PUBLIC "-//W3C//DTD SVG 1.1//EN" "http://www.w3.org/Graphics/SVG/1.1/DTD/svg11.dtd">
<svg width="474pt" height="474pt" viewBox="0 0 474 474" version="1.1" xmlns="http://www.w3.org/2000/svg">
<g id="#fefefeff">
<path fill="#ffffff" opacity="1.00" d=" M 461.91 462.89 C 467.72 457.79 470.29 450.37 474.00 443.82 L 474.00 474.00 L 443.13 474.00 C 449.63 470.74 456.76 468.28 461.91 462.89 Z" />
</g>
<g id="#010101ff">
<path fill="#ffffff" opacity="1.00" d=" M 166.01 0.00 L 204.98 0.00 C 206.95 0.74 208.90 1.62 210.99 2.00 C 246.97 6.61 281.23 22.68 308.42 46.58 C 326.38 62.80 341.38 82.35 351.98 104.13 C 377.13 155.46 376.77 218.57 350.43 269.38 C 346.98 277.03 341.92 283.76 337.83 291.05 C 345.16 293.35 352.35 296.60 357.66 302.33 C 392.68 337.30 427.72 372.27 462.62 407.36 C 467.92 412.33 469.96 419.49 474.00 425.33 L 474.00 443.82 C 470.29 450.37 467.72 457.79 461.91 462.89 C 456.76 468.28 449.63 470.74 443.13 474.00 L 425.29 474.00 C 419.24 469.87 411.88 467.73 406.83 462.16 C 372.08 427.58 337.48 392.85 302.81 358.20 C 297.05 352.75 293.23 345.63 291.30 337.99 C 284.15 341.39 277.97 346.50 270.70 349.71 C 223.26 374.85 164.74 377.24 115.16 356.88 C 95.98 349.12 78.18 338.00 62.70 324.30 C 32.68 298.28 12.09 261.94 3.95 223.16 C 2.56 217.10 2.82 210.64 0.00 204.96 L 0.00 163.42 C 0.92 161.54 2.00 159.70 2.35 157.62 C 6.81 125.53 20.57 94.96 40.54 69.55 C 54.48 52.48 71.10 37.33 90.28 26.34 C 108.91 15.04 129.66 7.41 151.03 3.28 C 156.08 2.49 161.32 2.28 166.01 0.00 M 171.44 47.73 C 146.41 50.42 122.04 59.71 102.01 75.03 C 67.90 100.42 46.82 142.44 47.21 185.00 C 46.50 228.60 68.47 271.71 103.85 297.12 C 135.25 320.56 177.09 328.98 215.24 320.47 C 240.62 315.01 264.30 302.04 282.68 283.71 C 313.09 254.20 328.12 210.02 322.60 168.08 C 320.56 153.24 316.63 138.56 309.88 125.14 C 298.74 101.80 280.74 81.86 258.82 68.17 C 240.81 56.63 219.89 50.05 198.71 47.63 C 189.64 47.07 180.50 46.97 171.44 47.73 Z" />
</g>
</svg>
