<?xml version="1.0" encoding="UTF-8"?>
<!-- Generator: visioncortex VTracer -->
<svg id="svg" version="1.1" xmlns="http://www.w3.org/2000/svg" style="display: block;" viewBox="0 0 240 240"><path d="M0 0 C0.62068359 -0.03754395 1.24136719 -0.07508789 1.88085938 -0.11376953 C2.79834961 -0.15219971 2.79834961 -0.15219971 3.734375 -0.19140625 C4.34506836 -0.20647217 4.95576172 -0.22153809 5.58496094 -0.23706055 C6.50196777 -0.24346558 6.50196777 -0.24346558 7.4375 -0.25 C8.05399414 -0.24331299 8.67048828 -0.23662598 9.30566406 -0.22973633 C9.92666992 -0.21322021 10.54767578 -0.1967041 11.1875 -0.1796875 C12.12529297 -0.14053223 12.12529297 -0.14053223 13.08203125 -0.10058594 C13.71496094 -0.06739258 14.34789063 -0.03419922 15 0 C15.64582031 0.03577148 16.29164063 0.07154297 16.95703125 0.10839844 C17.93736328 0.17462402 17.93736328 0.17462402 18.9375 0.2421875 C19.59564697 0.29874512 20.25379395 0.35530273 20.93188477 0.41357422 C21.59373779 0.48334473 22.25559082 0.55311523 22.9375 0.625 C23.60128662 0.7089502 24.26507324 0.79290039 24.94897461 0.87939453 C25.61421143 0.98106934 26.27944824 1.08274414 26.96484375 1.1875 C27.63112793 1.30867188 28.29741211 1.42984375 28.98388672 1.5546875 C29.6492041 1.70164063 30.31452148 1.84859375 31 2 C31.99217529 2.27457031 31.99217529 2.27457031 33.00439453 2.5546875 C33.99415283 2.86792969 33.99415283 2.86792969 35.00390625 3.1875 C35.66438965 3.41630859 36.32487305 3.64511719 37.00537109 3.88085938 C37.66359863 4.12642578 38.32182617 4.37199219 39 4.625 C39.65049316 4.88087891 40.30098633 5.13675781 40.97119141 5.40039062 C41.62394043 5.67044922 42.27668945 5.94050781 42.94921875 6.21875 C43.60712402 6.50363281 44.2650293 6.78851563 44.94287109 7.08203125 C45.62172363 7.38496094 46.30057617 7.68789063 47 8 C48.09368896 8.49306641 48.09368896 8.49306641 49.20947266 8.99609375 C49.95116699 9.33769531 50.69286133 9.67929688 51.45703125 10.03125 C52.18599609 10.37849121 52.91496094 10.72573242 53.66601562 11.08349609 C54.72852539 11.59904053 54.72852539 11.59904053 55.8125 12.125 C56.82666992 12.61154053 56.82666992 12.61154053 57.86132812 13.10791016 C58.49103516 13.42550293 59.12074219 13.7430957 59.76953125 14.0703125 C60.63227661 14.54355957 60.63227661 14.54355957 61.51245117 15.02636719 C62.00334229 15.34766602 62.4942334 15.66896484 63 16 C63.94746094 17.03253906 63.94746094 17.03253906 64.9140625 18.0859375 C65.27242188 18.71757813 65.63078125 19.34921875 66 20 C66.185625 20.825 66.37125 21.65 66.5625 22.5 C66.2840625 23.7375 66.2840625 23.7375 66 25 C65.17113281 25.62777344 64.34226562 26.25554687 63.48828125 26.90234375 C62.94389404 27.24571777 62.39950684 27.5890918 61.83862305 27.94287109 C61.23187744 28.29172363 60.62513184 28.64057617 60 29 C59.35393799 29.33725098 58.70787598 29.67450195 58.04223633 30.02197266 C57.01972778 30.52349854 57.01972778 30.52349854 55.9765625 31.03515625 C55.265 31.36966797 54.5534375 31.70417969 53.8203125 32.04882812 C53.09585938 32.38333984 52.37140625 32.71785156 51.625 33.0625 C50.90828125 33.40087891 50.1915625 33.73925781 49.453125 34.08789062 C48.73898438 34.42111328 48.02484375 34.75433594 47.2890625 35.09765625 C46.5765332 35.41750488 45.86400391 35.73735352 45.12988281 36.06689453 C44.42702148 36.37481934 43.72416016 36.68274414 43 37 C42.31518555 37.30147949 41.63037109 37.60295898 40.92480469 37.91357422 C40.25610352 38.18830566 39.58740234 38.46303711 38.8984375 38.74609375 C38.24681641 38.97772217 37.59519531 39.20935059 36.92382812 39.44799805 C36.28896484 39.63015869 35.65410156 39.81231934 35 40 C34.37802734 40.12737549 33.75605469 40.25475098 33.11523438 40.38598633 C32.51775391 40.43907959 31.92027344 40.49217285 31.3046875 40.546875 C30.21414062 40.36640625 29.12359375 40.1859375 28 40 C27.3198584 39.48663086 27.3198584 39.48663086 26.62597656 38.96289062 C26.21573242 38.50591797 25.80548828 38.04894531 25.3828125 37.578125 C24.81481934 36.79018555 24.81481934 36.79018555 24.23535156 35.98632812 C23.86893555 35.41333984 23.50251953 34.84035156 23.125 34.25 C22.73280273 33.66669922 22.34060547 33.08339844 21.93652344 32.48242188 C21.56301758 31.88494141 21.18951172 31.28746094 20.8046875 30.671875 C20.30533691 29.75631836 20.30533691 29.75631836 19.79589844 28.82226562 C19.40192871 27.92024414 19.40192871 27.92024414 19 27 C18.69449219 25.33710937 18.69449219 25.33710937 18.3828125 23.640625 C18.33898437 22.60421875 18.29515625 21.5678125 18.25 20.5 C18.23582031 19.52417969 18.22164063 18.54835938 18.20703125 17.54296875 C18.13871094 16.70378906 18.07039063 15.86460938 18 15 C17.71511719 14.39800781 17.43023437 13.79601562 17.13671875 13.17578125 C16.74097656 12.72589844 16.34523438 12.27601562 15.9375 11.8125 C14.968125 11.214375 13.99875 10.61625 13 10 C12.37351562 9.80921875 11.74703125 9.6184375 11.1015625 9.421875 C10.42867188 9.30328125 9.75578125 9.1846875 9.0625 9.0625 C8.38058594 9.01996094 7.69867188 8.97742187 6.99609375 8.93359375 C6.33738281 8.95550781 5.67867187 8.97742187 5 9 C3.329375 9.309375 3.329375 9.309375 1.625 9.625 C0.75875 10.07875 -0.1075 10.5325 -1 11 C-1.45375 11.70125 -1.9075 12.4025 -2.375 13.125 C-2.58125 14.07375 -2.7875 15.0225 -3 16 C-3.08894531 16.97259766 -3.08894531 16.97259766 -3.1796875 17.96484375 C-3.20289063 18.65707031 -3.22609375 19.34929687 -3.25 20.0625 C-3.22679687 20.74828125 -3.20359375 21.4340625 -3.1796875 22.140625 C-3.12039062 22.75421875 -3.06109375 23.3678125 -3 24 C-2.79375 24.763125 -2.5875 25.52625 -2.375 26.3125 C-1.92125 26.869375 -1.4675 27.42625 -1 28 C-0.113125 28.53625 0.77375 29.0725 1.6875 29.625 C2.48414062 29.99431641 2.48414062 29.99431641 3.296875 30.37109375 C3.85890625 30.57863281 4.4209375 30.78617188 5 31 C5.56203125 31.11472656 6.1240625 31.22945312 6.703125 31.34765625 C7.27546875 31.45980469 7.8478125 31.57195312 8.4375 31.6875 C9.01628906 31.83832031 9.59507813 31.98914063 10.19140625 32.14453125 C11.08666016 32.56798828 11.08666016 32.56798828 12 33 C12.64839844 33.58136719 13.29679687 34.16273437 13.96484375 34.76171875 C14.59519531 35.45910156 15.22554688 36.15648437 15.875 36.875 C16.44992188 37.55304688 17.02484375 38.23109375 17.6171875 38.9296875 C18.30167969 39.95449219 18.30167969 39.95449219 19 41 C19.46792969 41.99386719 19.46792969 41.99386719 19.9453125 43.0078125 C19.96335937 43.66523437 19.98140625 44.32265625 20 45 C19.50628906 45.67675781 19.01257813 46.35351562 18.50390625 47.05078125 C17.67761719 47.69402344 16.85132813 48.33726563 16 49 C15.24372314 49.40871338 15.24372314 49.40871338 14.47216797 49.82568359 C13.91287598 50.0830127 13.35358398 50.3403418 12.77734375 50.60546875 C12.16536133 50.86263672 11.55337891 51.11980469 10.92285156 51.38476562 C10.26768555 51.64966797 9.61251953 51.91457031 8.9375 52.1875 C8.25010742 52.47431641 7.56271484 52.76113281 6.85449219 53.05664062 C6.13293945 53.36150391 5.41138672 53.66636719 4.66796875 53.98046875 C3.91563965 54.29935059 3.16331055 54.61823242 2.38818359 54.94677734 C1.20603271 55.46812256 1.20603271 55.46812256 0 56 C-1.25756104 56.60062256 -1.25756104 56.60062256 -2.54052734 57.21337891 C-3.39727051 57.63409668 -4.25401367 58.05481445 -5.13671875 58.48828125 C-5.98806396 58.90505127 -6.83940918 59.32182129 -7.71655273 59.7512207 C-8.55259033 60.16331787 -9.38862793 60.57541504 -10.25 61 C-11.05961182 61.41016357 -11.86922363 61.82032715 -12.70336914 62.24291992 C-13.46641357 62.61650635 -14.22945801 62.99009277 -15.015625 63.375 C-15.68883789 63.71273437 -16.36205078 64.05046875 -17.05566406 64.3984375 C-18.01811035 64.69621094 -18.01811035 64.69621094 -19 65 C-19.69697998 64.90315918 -20.39395996 64.80631836 -21.11206055 64.70654297 C-21.73508057 64.47338379 -22.35810059 64.24022461 -23 64 C-23.72316406 63.44570312 -24.44632813 62.89140625 -25.19140625 62.3203125 C-25.97386719 61.59585938 -26.75632812 60.87140625 -27.5625 60.125 C-27.99377197 59.72498779 -28.42504395 59.32497559 -28.86938477 58.9128418 C-29.54118774 58.28502808 -29.54118774 58.28502808 -30.2265625 57.64453125 C-30.68321289 57.20963379 -31.13986328 56.77473633 -31.61035156 56.32666016 C-32.06893555 55.8888623 -32.52751953 55.45106445 -33 55 C-33.44827148 54.57895996 -33.89654297 54.15791992 -34.35839844 53.72412109 C-34.80473633 53.30340332 -35.25107422 52.88268555 -35.7109375 52.44921875 C-36.38491577 51.80327759 -36.38491577 51.80327759 -37.07250977 51.14428711 C-37.52295654 50.70479736 -37.97340332 50.26530762 -38.4375 49.8125 C-39.11220337 49.14069702 -39.11220337 49.14069702 -39.80053711 48.45532227 C-40.25436768 47.99053467 -40.70819824 47.52574707 -41.17578125 47.046875 C-41.6342041 46.56283203 -42.09262695 46.07878906 -42.56494141 45.58007812 C-43.03851074 45.05865234 -43.51208008 44.53722656 -44 44 C-44.50837402 43.40896484 -45.01674805 42.81792969 -45.54052734 42.20898438 C-46.31517334 41.27795898 -46.31517334 41.27795898 -47.10546875 40.328125 C-47.86355835 39.39069458 -47.86355835 39.39069458 -48.63696289 38.43432617 C-49.12801514 37.81662354 -49.61906738 37.1989209 -50.125 36.5625 C-50.5986499 35.97122314 -51.0722998 35.37994629 -51.56030273 34.77075195 C-51.99673096 34.20831787 -52.43315918 33.64588379 -52.8828125 33.06640625 C-53.46180298 32.26746948 -53.46180298 32.26746948 -54.05249023 31.45239258 C-54.52150757 30.73345825 -54.52150757 30.73345825 -55 30 C-55.32355469 29.27296875 -55.64710937 28.5459375 -55.98046875 27.796875 C-55.98691406 27.20390625 -55.99335937 26.6109375 -56 26 C-55.64292969 25.44699219 -55.28585938 24.89398438 -54.91796875 24.32421875 C-54.34691406 23.78410156 -53.77585938 23.24398437 -53.1875 22.6875 C-52.53265625 22.08292969 -51.8778125 21.47835937 -51.203125 20.85546875 C-50.47609375 20.24316406 -49.7490625 19.63085938 -49 19 C-48.27296875 18.41863281 -47.5459375 17.83726563 -46.796875 17.23828125 C-46.01828125 16.66464844 -45.2396875 16.09101562 -44.4375 15.5 C-43.59058594 14.92765625 -42.74367188 14.3553125 -41.87109375 13.765625 C-40.92363281 13.18296875 -39.97617188 12.6003125 -39 12 C-38.45359863 11.68998047 -37.90719727 11.37996094 -37.34423828 11.06054688 C-36.76786621 10.74666016 -36.19149414 10.43277344 -35.59765625 10.109375 C-34.71424561 9.64470825 -34.71424561 9.64470825 -33.81298828 9.1706543 C-33.21470215 8.86683838 -32.61641602 8.56302246 -32 8.25 C-31.39655762 7.95456299 -30.79311523 7.65912598 -30.17138672 7.35473633 C-29.2802417 6.93357544 -29.2802417 6.93357544 -28.37109375 6.50390625 C-27.79343262 6.24109863 -27.21577148 5.97829102 -26.62060547 5.70751953 C-26.08580566 5.47403809 -25.55100586 5.24055664 -25 5 C-24.14535156 4.65839844 -23.29070312 4.31679688 -22.41015625 3.96484375 C-21.63542969 3.70832031 -20.86070313 3.45179687 -20.0625 3.1875 C-19.27359375 2.97867188 -18.4846875 2.76984375 -17.671875 2.5546875 C-16.79015625 2.37164062 -15.9084375 2.18859375 -15 2 C-13.30617188 1.69449219 -13.30617188 1.69449219 -11.578125 1.3828125 C-10.96646484 1.28556885 -10.35480469 1.1883252 -9.72460938 1.08813477 C-9.09361328 0.99717529 -8.46261719 0.90621582 -7.8125 0.8125 C-7.17376953 0.7312085 -6.53503906 0.64991699 -5.87695312 0.56616211 C-4.90918945 0.45800171 -4.90918945 0.45800171 -3.921875 0.34765625 C-3.27154297 0.28465332 -2.62121094 0.22165039 -1.95117188 0.15673828 C-1.30728516 0.10501465 -0.66339844 0.05329102 0 0 Z M73 34 C73.66644531 34.05542969 74.33289063 34.11085938 75.01953125 34.16796875 C75.67308594 34.44253906 76.32664062 34.71710938 77 35 C77.47824219 35.63550781 77.95648438 36.27101563 78.44921875 36.92578125 C78.85785156 37.71339844 79.26648438 38.50101562 79.6875 39.3125 C80.10386719 40.09238281 80.52023438 40.87226562 80.94921875 41.67578125 C81.29597656 42.44277344 81.64273438 43.20976563 82 44 C82.18320801 44.60191162 82.36641602 45.20382324 82.55517578 45.82397461 C82.70196777 46.54206299 82.84875977 47.26015137 83 48 C83.04793701 48.80469727 83.09587402 49.60939453 83.14526367 50.43847656 C83.15275635 51.33018555 83.16024902 52.22189453 83.16796875 53.140625 C83.17376953 54.12933594 83.17957031 55.11804688 83.18554688 56.13671875 C83.18619141 57.16410156 83.18683594 58.19148438 83.1875 59.25 C83.19974609 60.26191406 83.21199219 61.27382812 83.22460938 62.31640625 C83.22654297 63.31027344 83.22847656 64.30414063 83.23046875 65.328125 C83.21064941 66.29830566 83.19083008 67.26848633 83.17041016 68.26806641 C83.1141748 69.16960449 83.05793945 70.07114258 83 71 C82.88060059 71.77134277 82.76120117 72.54268555 82.63818359 73.33740234 C82.40156006 74.36534912 82.40156006 74.36534912 82.16015625 75.4140625 C81.97815674 76.03990234 81.79615723 76.66574219 81.60864258 77.31054688 C81.40779053 77.86806641 81.20693848 78.42558594 81 79 C80.57203125 79.91007812 80.1440625 80.82015625 79.703125 81.7578125 C79.22359375 82.53898437 78.7440625 83.32015625 78.25 84.125 C77.7240625 84.9603125 77.198125 85.795625 76.65625 86.65625 C76.1096875 87.4296875 75.563125 88.203125 75 89 C74.4534375 89.6496875 73.906875 90.299375 73.34375 90.96875 C72.8178125 91.5153125 72.291875 92.061875 71.75 92.625 C71.27046875 93.09164062 70.7909375 93.55828125 70.296875 94.0390625 C69.86890625 94.35617188 69.4409375 94.67328125 69 95 C68.34 95 67.68 95 67 95 C67 95.66 67 96.32 67 97 C66.14019531 97.66773438 65.28039062 98.33546875 64.39453125 99.0234375 C63.83016357 99.40290527 63.2657959 99.78237305 62.68432617 100.17333984 C62.06662354 100.5698877 61.4489209 100.96643555 60.8125 101.375 C60.17610596 101.78057129 59.53971191 102.18614258 58.8840332 102.60400391 C58.23394287 103.00280762 57.58385254 103.40161133 56.9140625 103.8125 C56.25438477 104.19535156 55.59470703 104.57820313 54.91503906 104.97265625 C54.28307617 105.31167969 53.65111328 105.65070313 53 106 C52.45053711 106.25136719 51.90107422 106.50273437 51.33496094 106.76171875 C50.8196582 106.96410156 50.30435547 107.16648437 49.7734375 107.375 C48.75507813 107.705 47.73671875 108.035 46.6875 108.375 C45.63691406 108.65601563 44.58632812 108.93703125 43.50390625 109.2265625 C42.94977051 109.35321289 42.39563477 109.47986328 41.82470703 109.61035156 C41.22255371 109.73893555 40.62040039 109.86751953 40 110 C39.30374512 110.14663086 38.60749023 110.29326172 37.89013672 110.44433594 C36.7824292 110.66911621 36.7824292 110.66911621 35.65234375 110.8984375 C34.52662964 111.1142749 34.52662964 111.1142749 33.37817383 111.33447266 C32.63462646 111.47159668 31.8910791 111.6087207 31.125 111.75 C30.42334717 111.87810059 29.72169434 112.00620117 28.9987793 112.13818359 C28.32113525 112.25242676 27.64349121 112.36666992 26.9453125 112.484375 C25.95772949 112.63036133 25.95772949 112.63036133 24.95019531 112.77929688 C24.30663086 112.85212891 23.66306641 112.92496094 23 113 C22.35385742 113.03673828 21.70771484 113.07347656 21.04199219 113.11132812 C20.42743164 113.12099609 19.81287109 113.13066406 19.1796875 113.140625 C18.13039062 113.09421875 17.08109375 113.0478125 16 113 C14.515 112.505 14.515 112.505 13 112 C13.185625 111.319375 13.37125 110.63875 13.5625 109.9375 C14.036875 108.968125 14.51125 107.99875 15 107 C15.24733887 106.37931641 15.49467773 105.75863281 15.74951172 105.11914062 C16.03584473 104.45076172 16.32217773 103.78238281 16.6171875 103.09375 C16.97143799 102.38919678 17.32568848 101.68464355 17.69067383 100.95874023 C18.12275146 100.31235596 18.5548291 99.66597168 19 99 C19.54358154 98.54375244 20.08716309 98.08750488 20.6472168 97.61743164 C21.25992432 97.24996826 21.87263184 96.88250488 22.50390625 96.50390625 C23.15713867 96.17342285 23.81037109 95.84293945 24.48339844 95.50244141 C25.16950195 95.19226074 25.85560547 94.88208008 26.5625 94.5625 C27.62452637 94.05468994 27.62452637 94.05468994 28.70800781 93.53662109 C29.41924805 93.21387207 30.13048828 92.89112305 30.86328125 92.55859375 C31.56533691 92.2735498 32.26739258 91.98850586 32.99072266 91.69482422 C33.98531494 91.35088623 33.98531494 91.35088623 35 91 C36.10730469 90.78472656 37.21460938 90.56945312 38.35546875 90.34765625 C39.31066406 90.27417969 40.26585937 90.20070312 41.25 90.125 C42.49523437 90.12886719 42.49523437 90.12886719 43.765625 90.1328125 C44.50296875 90.08898437 45.2403125 90.04515625 46 90 C46.71671875 89.74992187 47.4334375 89.49984375 48.171875 89.2421875 C48.77515625 88.83226562 49.3784375 88.42234375 50 88 C50.61294922 87.10474609 50.61294922 87.10474609 51.23828125 86.19140625 C51.48964844 85.46824219 51.74101562 84.74507812 52 84 C52.07605469 83.18402344 52.15210938 82.36804688 52.23046875 81.52734375 C52.21628906 80.67269531 52.20210937 79.81804687 52.1875 78.9375 C52.17783203 77.65166016 52.17783203 77.65166016 52.16796875 76.33984375 C52.11253906 75.56769531 52.05710938 74.79554688 52 74 C51.67 73.01 51.34 72.02 51 71 C50.34 70.608125 49.68 70.21625 49 69.8125 C48.01 69.544375 47.02 69.27625 46 69 C45.2884375 68.91363281 44.576875 68.82726562 43.84375 68.73828125 C43.0703125 68.70089844 42.296875 68.66351563 41.5 68.625 C40.7265625 68.64046875 39.953125 68.6559375 39.15625 68.671875 C38.4446875 68.78015625 37.733125 68.8884375 37 69 C36.4534375 69.27328125 35.906875 69.5465625 35.34375 69.828125 C34.9003125 70.17359375 34.456875 70.5190625 34 70.875 C33.34 71.57625 32.68 72.2775 32 73 C31.505 73.99 31.505 73.99 31 75 C30.98839844 75.65613281 30.97679687 76.31226563 30.96484375 76.98828125 C30.95582031 77.75527344 30.94679687 78.52226562 30.9375 79.3125 C30.855 80.116875 30.7725 80.92125 30.6875 81.75 C30.460625 82.4925 30.23375 83.235 30 84 C29.484375 84.515625 28.96875 85.03125 28.4375 85.5625 C27.7775 85.975 27.1175 86.3875 26.4375 86.8125 C25.71691406 87.18117187 24.99632812 87.54984375 24.25390625 87.9296875 C23.51011719 88.28289062 22.76632813 88.63609375 22 89 C21.30777344 89.41507813 20.61554688 89.83015625 19.90234375 90.2578125 C19.23332031 90.64710938 18.56429687 91.03640625 17.875 91.4375 C17.27429688 91.78683594 16.67359375 92.13617188 16.0546875 92.49609375 C15.03761719 92.74552734 15.03761719 92.74552734 14 93 C13.03449219 92.78988281 12.06898437 92.57976562 11.07421875 92.36328125 C10.05972656 91.91339844 9.04523438 91.46351563 8 91 C6.71416016 90.03320312 6.71416016 90.03320312 5.40234375 89.046875 C4.58894531 88.28890625 3.77554688 87.5309375 2.9375 86.75 C2.29832642 86.14828979 2.29832642 86.14828979 1.64624023 85.53442383 C1.22415283 85.13247803 0.80206543 84.73053223 0.3671875 84.31640625 C-0.41398437 83.55199219 -1.19515625 82.78757813 -2 82 C-2.63679688 81.41089844 -3.27359375 80.82179687 -3.9296875 80.21484375 C-4.42726563 79.71082031 -4.92484375 79.20679688 -5.4375 78.6875 C-5.953125 77.800625 -6.46875 76.91375 -7 76 C-5.97519531 75.02740234 -5.97519531 75.02740234 -4.9296875 74.03515625 C-4.45619873 73.69266846 -3.98270996 73.35018066 -3.49487305 72.99731445 C-3.00156494 72.66820068 -2.50825684 72.33908691 -2 72 C-1.15824219 71.45859375 -0.31648438 70.9171875 0.55078125 70.359375 C1.46214844 69.82828125 2.37351562 69.2971875 3.3125 68.75 C3.83046143 68.4511792 4.34842285 68.1523584 4.88208008 67.84448242 C5.42888428 67.53357666 5.97568848 67.2226709 6.5390625 66.90234375 C7.1052832 66.58765137 7.67150391 66.27295898 8.25488281 65.94873047 C8.83077148 65.63564941 9.40666016 65.32256836 10 65 C10.84836426 64.55164795 10.84836426 64.55164795 11.71386719 64.09423828 C12.57866699 63.64733643 12.57866699 63.64733643 13.4609375 63.19140625 C14.06292969 62.8857373 14.66492188 62.58006836 15.28515625 62.26513672 C15.91292969 61.9507666 16.54070312 61.63639648 17.1875 61.3125 C17.84105469 60.98781738 18.49460938 60.66313477 19.16796875 60.32861328 C19.86277344 59.98685059 20.55757812 59.64508789 21.2734375 59.29296875 C22.01561523 58.93122559 22.75779297 58.56948242 23.52246094 58.19677734 C24.34004883 57.80184082 25.15763672 57.4069043 26 57 C27.41200684 56.32445068 27.41200684 56.32445068 28.85253906 55.63525391 C29.8628418 55.15362793 30.87314453 54.67200195 31.9140625 54.17578125 C32.43306625 53.92835175 32.95207001 53.68092224 33.48680115 53.42599487 C34.01282425 53.17520172 34.53884735 52.92440857 35.08081055 52.66601562 C35.61282074 52.41231201 36.14483093 52.1586084 36.69296265 51.8972168 C37.22740997 51.64238525 37.7618573 51.38755371 38.3125 51.125 C38.84525543 50.87129639 39.37801086 50.61759277 39.9269104 50.35620117 C40.45867889 50.10265869 40.99044739 49.84911621 41.53833008 49.58789062 C42.06873398 49.33417694 42.59913788 49.08046326 43.14561462 48.81906128 C43.93785179 48.43876266 43.93785179 48.43876266 44.74609375 48.05078125 C45.27195572 47.79749054 45.79781769 47.54419983 46.33961487 47.28323364 C46.86031052 47.03072845 47.38100616 46.77822327 47.91748047 46.51806641 C48.93471191 46.01710449 49.95194336 45.51614258 51 45 C51.96695801 44.5054834 52.93391602 44.0109668 53.93017578 43.50146484 C54.85169434 43.02016113 55.77321289 42.53885742 56.72265625 42.04296875 C57.59688232 41.58196777 58.4711084 41.1209668 59.37182617 40.64599609 C60.19787354 40.20594238 61.0239209 39.76588867 61.875 39.3125 C63.05122925 38.67948975 63.05122925 38.67948975 64.2512207 38.03369141 C64.97011475 37.64745605 65.68900879 37.2612207 66.4296875 36.86328125 C67.36143799 36.35728394 67.36143799 36.35728394 68.31201172 35.84106445 C68.86904785 35.56351318 69.42608398 35.28596191 70 35 C70.99 34.67 71.98 34.34 73 34 Z M-64 38 C-62.948125 38.7115625 -62.948125 38.7115625 -61.875 39.4375 C-61.42125 39.81648438 -60.9675 40.19546875 -60.5 40.5859375 C-60.005 41.05257812 -59.51 41.51921875 -59 42 C-58.2575 42.82371094 -58.2575 42.82371094 -57.5 43.6640625 C-56.96375 44.29054688 -56.4275 44.91703125 -55.875 45.5625 C-55.28203125 46.2534375 -54.6890625 46.944375 -54.078125 47.65625 C-53.04945312 48.81640625 -53.04945312 48.81640625 -52 50 C-51.58943359 50.43828125 -51.17886719 50.8765625 -50.75585938 51.328125 C-50.31564453 51.78703125 -49.87542969 52.2459375 -49.421875 52.71875 C-48.73726196 53.41955688 -48.73726196 53.41955688 -48.03881836 54.13452148 C-47.5722583 54.60575439 -47.10569824 55.0769873 -46.625 55.5625 C-46.15908447 56.03179932 -45.69316895 56.50109863 -45.21313477 56.98461914 C-44.74705811 57.44473389 -44.28098145 57.90484863 -43.80078125 58.37890625 C-43.33623535 58.82508301 -42.87168945 59.27125977 -42.39306641 59.73095703 C-41.93335449 60.14974121 -41.47364258 60.56852539 -41 61 C-40.10667969 61.71027344 -39.21335937 62.42054687 -38.29296875 63.15234375 C-37.47441406 63.76207031 -36.65585938 64.37179688 -35.8125 65 C-35.07644531 65.515625 -34.34039062 66.03125 -33.58203125 66.5625 C-33.05996094 67.036875 -32.53789063 67.51125 -32 68 C-32 68.99 -32 69.98 -32 71 C-32.64062378 71.49282471 -32.64062378 71.49282471 -33.29418945 71.99560547 C-33.89448975 72.28322754 -34.49479004 72.57084961 -35.11328125 72.8671875 C-36.11246582 73.35662842 -36.11246582 73.35662842 -37.13183594 73.85595703 C-37.85145508 74.19224121 -38.57107422 74.52852539 -39.3125 74.875 C-40.40159668 75.39682861 -40.40159668 75.39682861 -41.51269531 75.92919922 C-42.24198242 76.27740723 -42.97126953 76.62561523 -43.72265625 76.984375 C-44.81344482 77.49581055 -44.81344482 77.49581055 -45.92626953 78.01757812 C-46.61060059 78.34177734 -47.29493164 78.66597656 -48 79 C-48.58507324 79.29326172 -49.17014648 79.58652344 -49.77294922 79.88867188 C-50.30033691 80.15744141 -50.82772461 80.42621094 -51.37109375 80.703125 C-52.32113281 81.17234375 -53.27117188 81.6415625 -54.25 82.125 C-55.08015625 82.54007813 -55.9103125 82.95515625 -56.765625 83.3828125 C-57.50296875 83.58648437 -58.2403125 83.79015625 -59 84 C-59.71285156 83.80921875 -60.42570312 83.6184375 -61.16015625 83.421875 C-61.76730469 82.95265625 -62.37445313 82.4834375 -63 82 C-63.40605469 81.26007813 -63.81210937 80.52015625 -64.23046875 79.7578125 C-64.54628906 78.88898438 -64.86210938 78.02015625 -65.1875 77.125 C-65.51105469 76.26132813 -65.83460937 75.39765625 -66.16796875 74.5078125 C-66.44253906 73.68023437 -66.71710938 72.85265625 -67 72 C-67.19722656 71.38769531 -67.39445312 70.77539062 -67.59765625 70.14453125 C-67.73042969 69.43683594 -67.86320312 68.72914062 -68 68 C-68.06703125 66.86691406 -68.1340625 65.73382813 -68.203125 64.56640625 C-68.21545166 63.92324463 -68.22777832 63.28008301 -68.24047852 62.61743164 C-68.24362061 61.9393042 -68.2467627 61.26117676 -68.25 60.5625 C-68.25249756 59.86181396 -68.25499512 59.16112793 -68.25756836 58.43920898 C-68.24862549 57.72708252 -68.23968262 57.01495605 -68.23046875 56.28125 C-68.2051709 55.56710938 -68.17987305 54.85296875 -68.15380859 54.1171875 C-68.10305176 53.41851562 -68.05229492 52.71984375 -68 52 C-67.9067041 51.34 -67.8134082 50.68 -67.71728516 50 C-67.60046387 49.3709375 -67.48364258 48.741875 -67.36328125 48.09375 C-67.23469727 47.49618896 -67.10611328 46.89862793 -66.97363281 46.28295898 C-66.83795898 45.71520752 -66.70228516 45.14745605 -66.5625 44.5625 C-66.29566406 43.51191406 -66.02882812 42.46132812 -65.75390625 41.37890625 C-65.50511719 40.59386719 -65.25632813 39.80882813 -65 39 C-64.67 38.67 -64.34 38.34 -64 38 Z M-25 83 C-23.93096436 83.15251221 -23.93096436 83.15251221 -22.84033203 83.30810547 C-22.23302246 83.53643066 -21.62571289 83.76475586 -21 84 C-20.40058594 84.51433594 -19.80117187 85.02867187 -19.18359375 85.55859375 C-18.60738281 86.17863281 -18.03117187 86.79867187 -17.4375 87.4375 C-16.85871094 88.05496094 -16.27992187 88.67242187 -15.68359375 89.30859375 C-14.85021484 90.14583984 -14.85021484 90.14583984 -14 91 C-13.43410156 91.36222656 -12.86820313 91.72445312 -12.28515625 92.09765625 C-11.64900391 92.54431641 -11.64900391 92.54431641 -11 93 C-11 93.66 -11 94.32 -11 95 C-10.41863281 95.31582031 -9.83726563 95.63164062 -9.23828125 95.95703125 C-8.49964844 96.30121094 -7.76101562 96.64539063 -7 97 C-6.35417969 97.41636719 -5.70835938 97.83273438 -5.04296875 98.26171875 C-4.43066406 98.73222656 -3.81835938 99.20273438 -3.1875 99.6875 C-2.58421875 100.21730469 -1.9809375 100.74710938 -1.359375 101.29296875 C-0.91078125 101.85628906 -0.4621875 102.41960937 0 103 C0.14695312 103.86044922 0.14695312 103.86044922 0.296875 104.73828125 C0.21953125 105.31964844 0.1421875 105.90101563 0.0625 106.5 C-0.07027344 107.0259375 -0.20304687 107.551875 -0.33984375 108.09375 C-0.66662109 109.03734375 -0.66662109 109.03734375 -1 110 C-1.32871094 111.51787109 -1.32871094 111.51787109 -1.6640625 113.06640625 C-2.10492188 114.03449219 -2.54578125 115.00257813 -3 116 C-3.90621094 116.47308594 -4.81242187 116.94617188 -5.74609375 117.43359375 C-6.6112561 117.68931152 -6.6112561 117.68931152 -7.49389648 117.95019531 C-8.45598022 118.19141113 -8.45598022 118.19141113 -9.4375 118.4375 C-10.1169165 118.62795898 -10.79633301 118.81841797 -11.49633789 119.01464844 C-12.24004639 119.21993164 -12.98375488 119.42521484 -13.75 119.63671875 C-14.97396484 119.95455322 -14.97396484 119.95455322 -16.22265625 120.27880859 C-17.13917969 120.51680176 -18.05570313 120.75479492 -19 121 C-20.07378906 121.29084473 -21.14757812 121.58168945 -22.25390625 121.88134766 C-22.82386826 122.03656387 -23.39383026 122.19178009 -23.98106384 122.35169983 C-24.56481277 122.5102092 -25.14856171 122.66871857 -25.75 122.83203125 C-26.33991226 122.99050034 -26.92982452 123.14896942 -27.53761292 123.3122406 C-28.13178513 123.47096146 -28.72595734 123.62968231 -29.33813477 123.79321289 C-29.93425568 123.95177765 -30.53037659 124.11034241 -31.14456177 124.27371216 C-31.73623138 124.43088715 -32.327901 124.58806213 -32.9375 124.75 C-33.51668182 124.90483856 -34.09586365 125.05967712 -34.69259644 125.21920776 C-35.26188873 125.37044098 -35.83118103 125.52167419 -36.41772461 125.67749023 C-37.52639893 125.96438721 -38.63507324 126.25128418 -39.77734375 126.546875 C-40.83646973 126.8042041 -41.8955957 127.0615332 -42.98681641 127.32666016 C-43.98116699 127.5488623 -44.97551758 127.77106445 -46 128 C-46.92087402 128.18481934 -47.84174805 128.36963867 -48.79052734 128.56005859 C-49.60859863 128.68719238 -50.42666992 128.81432617 -51.26953125 128.9453125 C-52.33264526 129.10797607 -52.33264526 129.10797607 -53.41723633 129.27392578 C-53.93954834 129.18353027 -54.46186035 129.09313477 -55 129 C-55.2057666 128.41871338 -55.4115332 127.83742676 -55.62353516 127.23852539 C-55.66526855 126.54106201 -55.70700195 125.84359863 -55.75 125.125 C-55.62818359 123.75794922 -55.62818359 123.75794922 -55.50390625 122.36328125 C-55.25447266 120.69845703 -55.25447266 120.69845703 -55 119 C-54.85860596 117.99332275 -54.85860596 117.99332275 -54.71435547 116.96630859 C-54.6113916 116.24910645 -54.50842773 115.5319043 -54.40234375 114.79296875 C-54.28729492 114.05481934 -54.17224609 113.31666992 -54.05371094 112.55615234 C-53.93286133 111.81574707 -53.81201172 111.0753418 -53.6875 110.3125 C-53.51202637 109.24443115 -53.51202637 109.24443115 -53.33300781 108.15478516 C-53.20635742 107.46046387 -53.07970703 106.76614258 -52.94921875 106.05078125 C-52.73144775 105.03298584 -52.73144775 105.03298584 -52.50927734 103.99462891 C-52.34121582 103.33640137 -52.1731543 102.67817383 -52 102 C-51.70343506 101.0416626 -51.70343506 101.0416626 -51.40087891 100.06396484 C-51.17190918 99.45891113 -50.94293945 98.85385742 -50.70703125 98.23046875 C-50.30919434 97.38137939 -50.30919434 97.38137939 -49.90332031 96.51513672 C-49.60522461 96.0151416 -49.30712891 95.51514648 -49 95 C-48.31035156 94.28457031 -47.62070313 93.56914062 -46.91015625 92.83203125 C-45.94980469 92.22746094 -44.98945312 91.62289062 -44 91 C-43.30116699 90.64728027 -42.60233398 90.29456055 -41.88232422 89.93115234 C-41.09486816 89.56586426 -40.30741211 89.20057617 -39.49609375 88.82421875 C-38.67302734 88.47166016 -37.84996094 88.11910156 -37.00195312 87.75585938 C-36.15568359 87.40330078 -35.30941406 87.05074219 -34.4375 86.6875 C-33.58736328 86.31560547 -32.73722656 85.94371094 -31.86132812 85.56054688 C-31.03955078 85.21443359 -30.21777344 84.86832031 -29.37109375 84.51171875 C-28.2562561 84.03931763 -28.2562561 84.03931763 -27.11889648 83.55737305 C-26.41966064 83.37343994 -25.7204248 83.18950684 -25 83 Z " transform="translate(113,55)" style="fill: #F9F8F9;"/></svg>